<svg xmlns="http://www.w3.org/2000/svg" viewBox="0 0 1102 1096.31"><g id="Layer_2" data-name="Layer 2"><g id="Layer_1-2" data-name="Layer 1"><path d="M1102,223.88a13.87,13.87,0,0,0-.79,3.28c-.12,29.94-5,59.29-11,88.48-1.13,5.47-3.33,10.72-5.19,16.59L792.33,119.58c14.29-8,27.85-15.75,41.46-23.35,40.65-22.69,81.38-45.25,122-68.06,11.26-6.34,22.2-6.7,33.71-.88,58.63,29.7,93.7,77.26,106.32,141.34,3.13,15.9,3.65,32.32,5.41,48.5a35.33,35.33,0,0,0,.81,3.75Z"/><path d="M562.61,19.05c4.21,1.79,9.7,3.12,14,6.13q66.82,46.43,133.3,93.33c9.08,6.38,11.09,12.71,7.57,23.89q-23.57,74.9-47.31,149.73c-7.52,23.76-15.15,47.49-22.71,71.25a53.6,53.6,0,0,1-14.85,23.29Q531.24,481.08,429.86,575.44q-35.64,33.15-71.41,66.14a40.36,40.36,0,0,1-19.12,10.13q-109.24,24.43-218.44,49.1c-8.68,2-12.94-.42-16.9-9.67-7.66-17.86-15.29-35.75-22.75-53.7C65,598.31,48.86,559.12,32.58,520c-3.58-8.63-3.21-17,1.4-24.92q55.55-95.24,111.34-190.31C154,290,166.69,278.54,179.21,267q59.35-54.55,118.51-109.31c19.28-17.88,38.2-36.13,57.29-54.21,13.07-12.36,28.83-20.19,45.45-26.35Q475,49.52,549.7,22.24C553.4,20.89,557.39,20.32,562.61,19.05Z"/><path d="M282.68,1089.6l97.37-386.55L751,846.16c-11.68,12.19-22,24.14-33.55,34.83-43.17,40.08-92.15,72.13-142.87,101.61-57.88,33.64-117.85,63-181.08,85.27-28.57,10.07-57.58,18.71-87.91,21.62C298.21,1090.2,290.69,1089.6,282.68,1089.6Z"/><path d="M818.83,782.84c-40.4-123.37-80.51-245.86-121-369.42l367.34-8.11C1012,550.22,922.11,670.26,818.83,782.84Z"/><path d="M775.5,804.39,406.58,662.23l247.17-229.9C694.37,556.46,734.75,679.85,775.5,804.39Z"/><path d="M839.78,830.43C933.33,730,1017.9,623.89,1081.58,501.91c-12.9,169.18-25.8,338.35-38.81,508.93Z"/><path d="M805.23,863.73c13.82,12.25,27.25,24.14,40.68,36.06q78.76,69.91,157.58,139.82c2.37,2.1,3.93,4,1.8,7.5l-502.49,34C615.22,1025.07,713.13,949,805.23,863.73Z"/><path d="M1031.1,358.14l-333.71,7.43c21.83-69.5,43.49-138.47,65.36-208.12,1.9,1.31,3.51,2.36,5.06,3.49q130.29,94.49,260.6,189C1031.17,351.9,1033.46,353.82,1031.1,358.14Z"/><path d="M126.7,748.89l204-46c-4,15.9-7.74,30.82-11.49,45.75L241.7,1057.05a4.24,4.24,0,0,1-.39,1.43c-1,1.3-2,2.52-3,3.78-1.15-1.14-2.86-2.07-3.35-3.43-4.9-13.6-9.59-27.26-14.36-40.9q-46.25-132.16-92.48-264.32C127.63,752.23,127.27,750.81,126.7,748.89Z"/><path d="M87.31,791.52c2,2.26,4.68,4,5.5,6.3q52,147.82,103.61,295.78c.22.61.29,1.27.61,2.71l-18.76-3.24c-36.05-6.2-69.68-18.3-98.94-40.91-33.26-25.69-53.52-59.94-65.27-99.7-6.46-21.86-6.4-22,5-41.63q31.65-54.57,63.44-109.07C84.16,798.93,85.32,795.81,87.31,791.52Z"/><path d="M765.49.08H894.37a13.91,13.91,0,0,1,3.48.07A15.89,15.89,0,0,1,901,1.85c-.69,1-1.18,2.31-2.12,2.87-10.88,6.42-21.74,12.91-32.79,19Q814.83,52.18,763.43,80.33c-8.83,4.85-17.28,5.21-26.12-1-34.9-24.7-70.07-49-105.09-73.58-1.16-.81-1.73-2.46-2.57-3.72,1.48-.63,3-1.82,4.46-1.83Q699.8,0,765.49.08Z"/><path d="M3.72,575.67c7,16.32,14.06,32.6,20.94,49,12.63,30,25,60.14,37.76,90.1,4.28,10.06,4.33,19-1.54,28.83C42.27,774.66,24.3,806.14,6.14,837.5,4.67,840,3.37,842.2,0,839.67v-4.41Q0,708.42.06,581.58c0-2,.82-4.08,1.26-6.12Z"/></g></g></svg>